<svg xmlns="http://www.w3.org/2000/svg" enable-background="new 0 0 512 512" viewBox="0 0 512 512" id="mercury"><path fill="#6787e7" d="M467.275,390.564c-106.762,166.657-353.479,148.612-437.431-27.13C-48.093,199.527,70.181,5.207,256.101,5.207c90.976,0,169.865,48.442,213.412,119.285v0.053C520.361,207.1,518.334,310.697,467.275,390.564z"></path><path fill="#b3c3f3" d="M186.776 420.458c-12.739 5.117-29.581-5.917-39.921 3.091-13.785 11.996 4.955 44.897-17.269 48.823-43.173-25.264-78.084-63.107-99.777-108.519 11.353-34.485 66.092.48 89.49 5.97 12.632 2.984 25.797 1.705 38.749 2.665C206.218 375.856 203.251 413.897 186.776 420.458zM116.58 235.561c-21.267 20.894-27.13-2.025-42.32-6.929-20.518-6.591-34.464 23.652-67.744 5.596 4.264-49.622 23.026-95.14 52.021-132.236 11.25 17.386-5.794 43.465 33.792 38.002 37.576-5.17 20.147 24.412 29.155 34.858 7.889 9.167 27.343 2.185 32.193 13.272C158.047 198.198 145.309 207.419 116.58 235.561zM337.827 47.093c-3.026 36.736-28.564 42.099-46.264 50.421-37.075 17.638-15.3 39.182-24.092 55.432-9.874 18.156-61.013 21.292-85.759-13.005-10.447-14.445-15.457-33.845-30.647-43.173-15.901-9.778-56.201-7.047-52.607-35.285 68.545-55.649 158.519-69.18 236.864-43.066C337.454 27.852 338.627 37.499 337.827 47.093zM471.13 155.345c-5.863 7.995-18.175 7.515-27.396 3.891-9.274-3.571-18.122-9.434-28.036-9.488-9.807-.053-19.135 5.65-28.835 4.584-12.259-1.332-21.32-13.911-21.107-26.224.486-28.09 30.333-34.292 39.762-45.678 8.848-10.607 2.132-15.564-3.571-22.652-3.145-3.944-5.49-7.409-3.731-9.914 28.675 19.721 52.98 45.305 71.262 75.046v.053C472.089 135.784 477.366 146.817 471.13 155.345zM506.361 265.995c-1.759 45.89-15.883 88.637-39.122 124.988-8.251-9.431-21.245-22.091-21.267-22.12-5.383-7.142-7.302-17.642-2.025-24.891 5.064-7.035 15.884-9.966 17.589-18.495 1.866-9.488-9.221-16.363-12.312-25.531-2.985-8.794 2.132-18.708 9.647-24.091C469.813 268.073 495.715 264.462 506.361 265.995zM171.509 242.941c-24.948 14.638-26.833 45.143 10.113 60.335 41.271 16.971 31.343 7.745 57.953 41.693 38.984 49.735 116.236 49.818 147.801 12.679 25.165-29.608 2.761-48.568 8.931-65.849 3.214-9.002 13.452-14.802 14.614-24.29 2.368-19.336-26.402-23.321-35.651-36.358-9.448-13.317-3.314-34.809-15.729-45.415-8.375-7.155-21.66-5.194-30.641 1.184-8.981 6.378-14.831 16.131-21.045 25.227-19.87 29.083-33.377 26.406-64.03 19.339C222.682 226.613 190.41 231.851 171.509 242.941zM233.706 421.638c5.018-4.861 12.806-5.02 19.791-4.88 19.12.382 30.158-.142 38.763 3.829 6.734 3.108 12.394 10.123 11.128 17.431-1.596 9.214-12.326 13.422-17.946 20.895-4.258 5.662-5.533 13.251-10.271 18.518-5.071 5.637-13.561 7.525-20.887 5.57C228.605 476.148 223.813 431.221 233.706 421.638z"></path><path fill="#4169e1" d="M394.093,238.779c-15.468-8.929-17.362-10.96-19.972-29.799c-1.317-9.468-2.806-20.196-11.118-27.3c-10.707-9.13-26.811-6.47-37.19,0.895c-9.431,6.7-15.528,16.405-22.361,26.567c-18.062,26.452-29.049,23.917-58.427,17.151c-22.423-5.153-55.897,0.13-76.212,12.055c-13.976,8.198-21.752,21.065-20.815,34.421c1.031,14.689,12.549,27.602,31.6,35.436c7.735,3.18,13.684,5.45,18.421,7.256c16.885,6.433,16.885,6.433,31.007,24.635l6.355,8.162c19.951,25.453,50.869,40.443,84.816,41.115c0.76,0.016,1.509,0.021,2.264,0.021c28.185,0,53.846-10.488,68.977-28.295c17.827-20.976,14.022-37.476,10.962-50.734c-1.489-6.449-2.769-12.013-1.072-16.776c2.758-7.705,13.487-13.982,14.881-25.432C418.109,252.645,404.795,244.957,394.093,238.779z M405.633,266.866c-0.895,7.264-10.788,13.187-14.34,23.142c-2.753,7.698-0.989,15.35,0.723,22.751c2.78,12.065,5.658,24.542-8.698,41.437c-13.486,15.865-37.117,25.192-62.908,24.516c-30.736-0.609-58.671-14.106-76.639-37.034l-6.319-8.115c-15.657-20.18-16.323-20.706-35.639-28.066c-4.669-1.78-10.535-4.013-18.166-7.152c-15.157-6.236-24.276-15.829-25.015-26.327c-0.651-9.223,5.174-18.374,15.574-24.479c17.946-10.532,48.671-15.418,68.426-10.858c30.595,7.053,47.439,10.936,69.628-21.523c6.068-9.031,11.807-18.272,19.727-23.891c6.834-4.856,17.609-7.016,24.094-1.483c5.231,4.476,6.272,11.977,7.48,20.664c3.145,22.62,7.267,27.207,25.203,37.565C399.907,254.446,406.601,258.923,405.633,266.866z"></path><path fill="#4169e1" d="M511.54,265.021c1.689-49.335-10.692-99.094-37.263-142.424c-0.049-0.101-0.107-0.197-0.163-0.296c-0.01-0.018-0.019-0.036-0.03-0.054c-0.024-0.041-0.042-0.084-0.068-0.124C427.129,45.838,345.655,0.294,256.065,0.294C122.295,0.294,13.57,102.483,1.4,233.087c-0.1,0.448-0.141,0.879-0.124,1.327c-11.84,134.718,85.9,267.254,239.361,276.786c145.08,8.966,264.812-102.593,270.845-244.004c0.037-0.155,0.133-0.28,0.156-0.441C511.724,266.158,511.646,265.583,511.54,265.021z M464.528,127.06c2.749,10.9,6.541,19.341,2.3,25.138c-6.003,8.186-20.018,2.782-28.675-1.202c-6.964-3.212-14.168-6.532-22.429-6.579c-9.169-0.497-19.803,5.531-28.284,4.617c-8.89-0.968-16.531-10.702-16.354-20.831c0.286-16.531,12.424-24.094,24.167-31.402c9.643-6.002,23.312-15.191,19.208-28.029C433.763,85.168,450.705,104.719,464.528,127.06z M330.684,22.473c1.796,8.897,2.443,16.867,1.828,24.182c-2.695,32.8-24.117,37.055-43.238,46.044c-27.826,13.242-26.327,30.257-25.229,42.687c0.515,5.856,0.963,10.915-1.26,15.017c-3.05,5.611-12.461,9.707-23.974,10.441c-16.432,0.989-38.851-4.726-52.779-24.027c-10.25-14.176-15.454-34.326-32.178-44.586c-16.16-9.949-50.904-7.764-50.254-28.033c42.608-34.056,95.911-53.243,152.465-53.243C281.88,10.954,306.965,14.968,330.684,22.473z M57.144,113.253c1.948,10.056,0.348,21.392,8.974,28.197c5.549,4.377,14.121,5.611,26.941,3.821c17.921-2.443,19.559,1.803,19.894,15.308c0.156,6.35,0.323,12.914,4.492,17.749c9.237,10.74,28.375,5.13,31.345,11.92c2.641,6.087-10.822,16.889-35.946,41.515c-17.832,17.506-18.861-2.367-36.956-8.203c-10.436-3.362-19.175,0.828-27.634,4.862c-10.567,5.052-20.588,9.826-35.966,2.745C16.655,189.686,31.514,149.185,57.144,113.253z M35.674,363.591c1.594-3.675,3.885-6.264,7.057-7.729c12.112-5.601,34.754,3.638,52.93,11.056c34.548,14.119,30.471,8.532,62.018,10.889c19.675,1.374,32.547,9.4,34.426,21.471c1.098,7.032-2.108,14.163-7.318,16.235c-10.918,4.37-28.786-7.006-41.432,4.018c-15.388,13.388-0.033,43.251-13.175,47.191C90.056,442.939,57.211,407.663,35.674,363.591z M241.299,500.562c-36.16-2.248-70.14-11.998-100.467-27.956c11.74-11.772,0.619-37.287,9.519-45.04c7.659-6.671,24.289,3.513,38.398-2.16c9.942-3.956,15.782-15.636,13.892-27.774c-1.01-6.491-7.188-27.873-44.201-30.46c-34.117-2.541-27.056,2.83-58.749-10.124c-21.127-8.625-45.06-18.421-61.43-10.863c-3.042,1.406-5.623,3.388-7.805,5.845c-14.964-35.206-21.355-72.674-19.164-109.742c18.083,6.931,30.965,0.805,41.559-4.243c7.464-3.571,13.346-6.418,19.774-4.336c12.082,3.887,23.124,29.806,47.689,5.658c29.606-29.015,44.336-39.354,38.247-53.378c-6.404-14.644-27.076-7.681-33.042-14.621c-1.681-1.952-1.796-6.579-1.91-11.056c-0.479-19.591-7.528-28.956-32.006-25.598c-9.489,1.306-15.849,0.76-18.879-1.629c-5.462-4.316-2.236-18.229-7.688-30.22c8.815-11.072,18.491-21.242,28.898-30.489c6.603,21.913,41.403,20.969,54.341,28.937c13.601,8.343,18.514,27.087,29.117,41.745c14.613,20.257,39.265,29.941,62.091,28.42c15.553-0.984,27.764-6.959,32.677-15.995c10.462-19.34-12.285-36.989,21.674-53.144c18.061-8.518,46.034-15.072,49.302-54.804c0.55-6.574,0.234-13.534-0.892-21.035c17.673,6.589,34.469,15.175,50.097,25.637c0.213,4.323,3.419,8.427,5.453,10.981c8.14,10.117,11.275,12.538-8.177,24.63c-12.154,7.573-28.805,17.937-29.19,40.266c-0.276,15.855,11.326,30.033,25.853,31.615c11.407,1.26,21.704-5.061,29.388-4.554c5.949,0.036,11.815,2.738,18.02,5.595c18.194,8.378,38.542,10.687,44.562-7.838c15.73,33.925,23.344,70.757,22.723,107.515c-13.422-0.061-34.84,3.798-45.205,11.17c-8.458,6.059-15.688,18.072-11.592,30.132c3.252,9.654,13.337,16.636,12.133,22.788c-1.144,5.7-11.178,8.766-16.672,16.396c-7.245,9.957-4.003,23.173,2.171,31.36c0.135,0.167,0.422,0.463,0.573,0.614c2.725,2.671,11.272,11.123,18.098,18.611C411.513,465.288,329.858,506.094,241.299,500.562z M466.324,382.044c-6.378-6.852-13.492-13.911-16.318-16.689c-3.758-5.195-5.549-13.028-1.733-18.27c4.484-6.235,16.269-9.443,18.494-20.576c2.442-12.401-9.798-20.252-12.492-28.274c-2.228-6.548,2.306-14.189,7.688-18.041c8.1-5.757,27.117-9.202,38.556-9.208C498.2,309.705,486.772,347.892,466.324,382.044z"></path><path fill="#4169e1" d="M294.494,415.746c-8.349-3.852-18.108-3.987-32.88-4.185c-11.306-0.21-23.652-1.466-31.621,6.251c-7.74,7.495-7.594,25.01-4.185,38.111c4.44,17.073,14.319,28.815,27.103,32.224c9.868,2.638,20.098-0.341,26.223-7.152c5.495-6.107,6.806-13.877,10.566-18.879c5.196-6.886,16.932-11.618,18.941-23.189C310.474,428.331,302.593,419.483,294.494,415.746z M298.138,437.107c-1.127,6.491-11.187,10.931-16.953,18.603c-3.847,5.118-6.558,14.364-9.973,18.155c-3.539,3.925-9.791,5.523-15.553,3.987c-12.737-3.399-17.905-18.343-19.535-24.615c-3.55-13.637-1.489-25.078,1.291-27.774c4.485-4.343,13.44-3.294,24.053-3.248c13.887,0.193,22.267,0.307,28.56,3.212C294.578,427.525,298.965,432.334,298.138,437.107z"></path></svg>